<svg  viewBox="0 0 1079 439" fill="none" xmlns="http://www.w3.org/2000/svg">
<path fill-rule="evenodd" clip-rule="evenodd" d="M143.685 1.35752C143.8 2.10407 144.317 3.86358 144.833 5.26736C145.349 6.67114 146.611 10.1886 147.637 13.0839C148.664 15.9792 150.453 20.9323 151.614 24.0908C152.775 27.2493 154.021 30.7667 154.383 31.9073C155.526 35.5067 157.39 40.8066 159.602 46.7427C163.843 58.1203 166.184 64.6294 166.43 65.7256C166.695 66.906 169.418 74.6906 169.945 75.7754C170.116 76.1263 171.107 78.7823 172.147 81.6776C173.187 84.5729 174.862 89.1671 175.869 91.8869C176.877 94.6067 177.811 97.3345 177.946 97.9487C178.08 98.5628 179.145 101.65 180.311 104.808C186.48 121.519 188.96 128.44 190.142 132.246C190.414 133.123 191.581 136.425 192.736 139.584C198.721 155.958 200.553 161.106 201.933 165.426C202.382 166.83 203.67 170.491 204.796 173.561C205.921 176.632 207.788 181.729 208.942 184.887C210.098 188.046 211.338 191.385 211.7 192.308C212.061 193.231 212.359 194.236 212.361 194.542C212.364 194.847 213.026 196.891 213.832 199.085C221.46 219.842 223.835 226.415 223.835 226.767C223.835 227.057 224.604 229.185 229.802 243.272C231.097 246.781 232.898 251.806 233.804 254.438C236.789 263.102 239.48 270.673 240.382 272.943L241.27 275.176L270.34 275.257L299.41 275.339L300.23 273.502C301.75 270.099 303.637 265.299 304.213 263.371C304.756 261.555 306.799 256.436 312.302 243.112C313.642 239.866 314.967 236.564 315.245 235.774C316.895 231.09 319.545 224.395 325.288 210.411C326.009 208.656 326.853 206.359 327.166 205.306C327.67 203.602 332.064 192.581 332.889 190.949C333.329 190.076 337.577 179.487 338.195 177.709C339.595 173.702 343.928 162.678 347.729 153.462C348.561 151.444 349.492 148.931 349.801 147.879C350.111 146.826 351.533 143.093 352.964 139.584C354.396 136.074 356.65 130.547 357.974 127.3C359.297 124.054 360.674 120.537 361.031 119.484C361.905 116.936 363.758 112.064 364.309 110.87C364.552 110.343 365.699 107.544 366.857 104.649C368.017 101.753 369.886 97.0956 371.011 94.2979C372.137 91.5002 373.059 89.0899 373.059 88.9412C373.059 88.6723 375.954 81.3886 380.768 69.5541C382.159 66.1324 383.603 62.4714 383.973 61.4185C385.019 58.4626 387.235 52.7521 388.399 50.0128L389.451 47.5403H668.377H947.301L947.451 46.8224C947.534 46.4278 948.12 40.2901 948.755 33.1834C949.389 26.0768 950.327 15.8117 950.84 10.372C951.353 4.93237 951.774 0.373919 951.774 0.242474C951.777 0.111029 815.627 0.00319353 649.217 0.00319353H346.661L345.465 3.11384C344.811 4.82453 344.17 6.36805 344.043 6.54353C343.918 6.719 342.917 9.15966 341.817 11.9672C340.72 14.7748 339.55 17.6742 339.222 18.4102C338.893 19.1463 338.622 19.9289 338.622 20.149C338.622 20.5443 335.893 27.6752 334.793 30.1525C333.154 33.8486 327.335 48.5063 327.096 49.5473C326.943 50.2129 326.538 51.3614 326.2 52.0997C325.859 52.8382 324.701 55.6678 323.624 58.3876C322.546 61.1075 321.411 63.907 321.098 64.6089C320.789 65.3108 319.781 67.8233 318.86 70.1921C317.939 72.561 316.915 75.1015 316.585 75.8376C316.254 76.5736 315.984 77.3683 315.984 77.6038C315.984 77.9949 313.028 85.6462 312.007 87.8989C311.768 88.4253 310.693 91.0813 309.617 93.8012C308.541 96.521 307.4 99.3206 307.082 100.022C306.57 101.15 305.838 103.132 304.076 108.158C303.799 108.948 302.373 112.537 300.906 116.134C299.439 119.731 297.34 124.9 296.242 127.619C295.143 130.339 293.899 133.323 293.476 134.249C293.053 135.175 292.707 136.152 292.707 136.418C292.707 136.935 291.948 138.863 285.405 154.966C283.108 160.619 281.229 165.447 281.229 165.695C281.229 165.943 280.99 166.701 280.699 167.381C279.688 169.738 275.435 180.123 273.824 184.169C272.933 186.407 272.103 188.237 271.979 188.237C271.855 188.237 271.279 186.766 270.698 184.967C270.118 183.168 268.716 179.113 267.584 175.954C263.369 164.199 260.783 157.103 260.374 156.174C259.977 155.27 258.923 152.074 257.85 148.517C257.585 147.639 256.262 143.907 254.91 140.222C249.806 126.31 248.12 121.66 247.506 119.803C245.75 114.487 244.408 110.63 242.346 104.968C241.099 101.546 239.279 96.521 238.301 93.8012C237.322 91.0813 236.178 88.0058 235.758 86.9667C235.338 85.9272 234.995 84.8202 234.995 84.5062C234.995 83.9872 228.693 66.1087 227.981 64.6089C227.467 63.5248 223.838 53.1455 223.836 52.7543C223.836 52.5514 222.122 47.6701 220.027 41.907C214.439 26.5311 212.495 21.0545 212.119 19.6242C211.759 18.2561 208.077 7.92401 207.572 6.86257C207.405 6.51162 206.783 4.86059 206.19 3.1936L205.112 0.162714L174.294 0.081357L143.476 0L143.685 1.35752ZM841.614 76.5905C828.796 77.7684 817.413 80.9952 808.616 85.9445C807.174 86.7561 805.829 87.4223 805.628 87.4245C805.14 87.4302 799.688 91.0105 797.13 93.0036C794.111 95.3565 789.816 99.1062 788.41 100.615C786.697 102.453 781.449 110.442 780.078 113.292C778.548 116.483 776.574 122.644 775.901 126.343C775.232 130.016 775.13 138.753 775.719 142.295C776.207 145.237 777.738 150.62 778.946 153.638C779.896 156.013 783.056 161.425 785.585 165.005C787.313 167.451 793.078 172.949 795.967 174.908C797.048 175.64 798.106 176.41 798.317 176.62C798.788 177.085 803.332 179.328 805.743 180.286C806.709 180.669 808.357 181.372 809.409 181.848C813.29 183.603 832.271 189.887 836.353 190.767C839.509 191.448 842.787 192.291 849.426 194.13C853.019 195.126 858.475 196.636 861.542 197.486C867.689 199.188 873.212 200.99 875.849 202.156C876.793 202.572 877.701 202.913 877.867 202.913C878.706 202.913 882.921 205.792 884.812 207.657C886.4 209.221 887.273 210.432 888.173 212.306C889.254 214.564 889.4 215.172 889.534 217.91C889.713 221.682 889.155 223.901 887.299 226.771C884.04 231.818 877.995 235.183 868.802 237.069C865.786 237.689 864.775 237.73 855.962 237.597C847.643 237.471 845.982 237.361 843.208 236.752C838.272 235.668 834.293 234.224 831.286 232.428C828.219 230.594 823.618 226.499 822.093 224.249C821.118 222.805 819.166 218.455 817.999 215.116L817.413 213.441H792.724H768.035L768.265 216.393C768.81 223.371 770.771 230.498 773.765 236.365C774.517 237.841 775.133 239.22 775.133 239.429C775.133 239.945 779.951 247.285 781.082 248.488C781.58 249.02 782.992 250.636 784.22 252.08C787.236 255.63 792.255 260.326 793.043 260.337C793.157 260.339 794.879 261.5 796.869 262.918C800.733 265.675 809.712 270.324 813.395 271.475C822.084 274.19 829.682 275.853 837.851 276.83C844.448 277.618 862.515 277.609 870.47 276.814C883.422 275.518 895.337 272.799 902.311 269.545C905.77 267.931 911.299 264.659 912.469 263.536C912.957 263.068 914.535 261.788 915.98 260.693C918.422 258.842 924.356 252.867 924.356 252.262C924.356 252.114 925.201 250.892 926.231 249.547C931.387 242.823 934.85 233.824 935.889 224.448C936.437 219.485 936.434 209.096 935.876 204.827C935.07 198.635 933.992 195.067 931.294 189.673C929.126 185.338 926.371 180.942 925.166 179.894C924.72 179.506 924.356 179.027 924.356 178.828C924.356 178.258 918.387 172.573 915.747 170.631C912.587 168.305 908.461 166 903.886 164.004C900.27 162.427 889.933 159.286 882.267 157.436C878.1 156.43 867.976 153.762 860.426 151.679C857.62 150.905 853.172 149.709 850.542 149.02C847.911 148.332 844.394 147.24 842.73 146.593C841.065 145.946 839.235 145.283 838.667 145.118C835.074 144.079 829.478 139.29 827.728 135.755C825.687 131.635 825.952 127.352 828.483 123.626C828.917 122.988 830.17 121.742 831.267 120.855C836.604 116.553 844.904 114.55 855.643 114.974C861.58 115.208 865.658 115.774 869.673 116.921C872.778 117.808 877.118 119.793 878.546 120.978C882.8 124.51 884.611 126.892 887.05 132.16L888.485 135.259L911.87 135.268L935.258 135.276L935.05 133.601C934.368 128.091 933.125 124.079 930.379 118.527C929.168 116.07 927.612 113.271 926.923 112.306C926.237 111.34 925.102 109.618 924.404 108.477C920.951 102.838 914.698 96.7791 907.297 91.8955C901.265 87.9164 900.468 87.4203 900.095 87.4203C899.929 87.4203 898.395 86.7268 896.689 85.8791C894.983 85.0314 892.726 84.0028 891.674 83.5935C890.621 83.1844 889.617 82.7454 889.442 82.6185C888.963 82.271 882.526 80.2429 879.006 79.3298C875.686 78.4684 869.87 77.4341 865.209 76.8761C861.36 76.4154 845.596 76.2246 841.614 76.5905ZM424.04 81.2788C423.855 81.7615 423.37 83.0259 422.969 84.0892C422.567 85.1523 421.869 86.8282 421.419 87.8134C420.966 88.7986 420.281 90.5849 419.892 91.7829C418.964 94.6453 417.625 98.1018 414.663 105.287C411.26 113.545 408.116 121.513 407.743 122.834C407.568 123.448 405.483 128.76 403.114 134.638C398.242 146.714 396.265 151.766 395.688 153.621C395.471 154.323 395.031 155.472 394.712 156.174C394.39 156.876 393.13 159.962 391.909 163.033C390.688 166.104 388.529 171.514 387.114 175.055C385.695 178.597 384.537 181.649 384.537 181.838C384.537 182.026 382.659 186.881 380.36 192.627C378.065 198.372 375.552 204.652 374.78 206.582C374.009 208.512 373.377 210.252 373.377 210.448C373.377 210.644 372 214.234 370.32 218.424C368.636 222.615 366.053 229.05 364.58 232.725C363.104 236.399 361.899 239.561 361.899 239.751C361.899 239.941 361.031 242.246 359.97 244.874C358.908 247.503 357.027 252.165 355.783 255.236C350.93 267.249 350.101 269.374 350.101 269.82C350.101 270.075 349.671 271.265 349.145 272.464C348.618 273.663 348.188 274.728 348.188 274.831C348.188 274.933 360.725 275.016 376.046 275.016H403.904L405.547 270.47C406.449 267.969 407.185 265.708 407.182 265.445C407.179 265.005 411.436 252.444 413.425 247.019L414.277 244.705L451.27 244.786L488.263 244.867L488.85 246.622C489.172 247.587 489.58 248.664 489.756 249.014C489.934 249.365 490.929 252.093 491.972 255.076C493.014 258.059 494.889 263.3 496.139 266.721C497.386 270.143 498.566 273.409 498.76 273.979L499.114 275.016H526.634H554.158L553.485 273.341C553.115 272.42 551.913 269.226 550.81 266.243C549.707 263.26 548.055 258.809 547.14 256.352C546.221 253.896 545.361 251.383 545.22 250.769C545.083 250.155 543.948 246.925 542.695 243.591C541.445 240.257 539.58 235.232 538.55 232.424C537.52 229.617 536.021 225.603 535.218 223.505C534.417 221.406 533.761 219.441 533.761 219.138C533.761 218.835 533.321 217.465 532.785 216.094C531.876 213.773 530.515 210.101 526.421 198.925C525.521 196.468 524.224 192.992 523.535 191.199C522.846 189.406 522.282 187.731 522.282 187.477C522.282 187.003 521.415 184.566 517.55 174.199C511.862 158.944 511.049 156.707 510.637 155.217C510.395 154.339 509.397 151.468 508.415 148.836C507.436 146.204 505.848 141.897 504.888 139.264C503.929 136.632 503.007 134.192 502.835 133.841C502.213 132.558 499.602 125.19 499.331 123.951C499.175 123.249 498.017 119.947 496.751 116.613C491.168 101.889 489.099 96.2262 487.31 90.7703C486.966 89.7174 485.974 86.9552 485.113 84.6322L483.541 80.4085L453.958 80.405L424.378 80.4015L424.04 81.2788ZM575.53 177.709V275.016H600.56H625.59V226V176.984L626.713 178.383C627.331 179.153 629.688 182.249 631.952 185.264C634.215 188.278 636.365 191.042 636.728 191.405C637.092 191.769 637.388 192.208 637.388 192.381C637.388 192.699 644.553 202.479 645.219 203.073C645.774 203.565 648.398 207.124 648.867 208.018C649.342 208.922 652.913 213.752 653.468 214.239C654.054 214.755 660.345 223.314 660.345 223.596C660.345 223.739 660.821 224.419 661.404 225.109C662.766 226.724 670.833 237.474 671.655 238.772C672.625 240.3 678.555 248.336 678.979 248.695C679.56 249.188 682.85 253.684 683.415 254.757C683.689 255.284 684.709 256.719 685.678 257.948C688.672 261.738 694.565 269.64 695.085 270.561C695.356 271.041 696.226 272.239 697.014 273.224L698.448 275.014L721.326 275.015L744.204 275.016V177.709V80.4015H718.058H691.912V133.203C691.912 162.243 691.8 186.004 691.663 186.004C691.523 186.004 691.14 185.537 690.809 184.967C690.48 184.397 688.889 181.92 687.279 179.464C685.666 177.007 683.743 173.856 683.01 172.462C682.273 171.067 681.195 169.273 680.615 168.474C680.035 167.675 678.23 164.867 676.597 162.235C674.968 159.603 673.383 157.163 673.077 156.812C672.771 156.461 672.197 155.528 671.802 154.738C670.909 152.956 666.796 146.192 666.078 145.326C665.323 144.411 660.419 136.486 660.151 135.742C660.027 135.398 659.462 134.471 658.898 133.681C658.334 132.892 656.577 130.164 654.992 127.619C653.41 125.075 651.312 121.783 650.33 120.304C649.351 118.825 648.545 117.461 648.538 117.273C648.535 117.085 647.604 115.496 646.475 113.741C645.343 111.986 642.872 108.065 640.982 105.027C635.622 96.4055 630.434 88.1241 627.867 84.0905L625.52 80.4015H600.525H575.53V177.709ZM452.727 147.939C453.119 149.309 454.787 154.451 456.429 159.364C462.978 178.965 465.325 186.023 469.135 197.569L473.108 209.613H451.595H430.082L430.29 208.576C430.404 208.006 433.022 200.145 436.109 191.109C439.198 182.072 441.829 174.175 441.96 173.561C442.371 171.608 451.579 145.179 451.799 145.316C451.914 145.387 452.332 146.568 452.727 147.939ZM942.052 254.8C938.472 255.687 936.772 256.773 935.082 259.257C933.59 261.454 933.182 262.981 933.348 265.799C933.568 269.644 935.513 272.735 938.771 274.422C940.834 275.49 945.085 275.645 947.157 274.729C949.852 273.536 951.717 271.864 952.791 269.681C953.707 267.823 953.761 267.516 953.633 264.873C953.49 261.831 952.871 260.332 950.773 257.942C949 255.92 944.326 254.236 942.052 254.8ZM947.278 256.752C948.898 257.522 951.656 260.279 952.262 261.741C953.27 264.162 952.565 268.419 950.776 270.693C949.778 271.962 946.8 273.733 945.136 274.048C942.295 274.584 937.818 273.055 936.313 271.037C934.566 268.688 933.985 264.363 935.054 261.617C936.82 257.065 942.869 254.658 947.278 256.752ZM939.342 264.967V270.55H940.458H941.574V268.615V266.681L942.607 266.781C943.462 266.863 943.86 267.2 944.9 268.715C946.003 270.326 946.284 270.55 947.215 270.55C947.795 270.55 948.27 270.481 948.27 270.398C948.27 270.314 947.83 269.433 947.294 268.441L946.319 266.636L947.215 265.7C947.954 264.928 948.108 264.495 948.088 263.222C948.063 261.456 947.342 260.138 946.159 259.688C945.719 259.52 944.004 259.383 942.352 259.383H939.342V264.967ZM945.719 261.936C946.548 262.764 946.523 263.074 945.557 264.041C944.887 264.71 944.508 264.826 943.245 264.744C941.74 264.648 941.734 264.642 941.632 263.418C941.479 261.522 941.673 261.298 943.478 261.298C944.657 261.298 945.251 261.467 945.719 261.936ZM99.8011 350.182C99.3627 350.262 97.7235 350.549 96.1582 350.82C94.593 351.095 92.4407 351.592 91.3754 351.927C90.3101 352.262 89.1368 352.537 88.7682 352.54C87.7721 352.546 81.2011 355.855 78.2785 357.823C74.7188 360.223 68.1479 366.734 65.9019 370.09C63.6425 373.466 61.1411 379.314 59.8973 384.128C57.7727 392.35 58.5562 404.059 61.6761 410.704C62.1044 411.617 62.758 413.18 63.1282 414.179C64.2799 417.28 66.9098 420.888 71.2481 425.32C75.1528 429.304 80.2643 433.26 81.5091 433.26C81.7569 433.26 83.0683 433.816 84.4235 434.498C87.4318 436.007 91.9175 437.472 96.332 438.378C99.2817 438.987 100.37 439.045 106.338 438.908C113.802 438.735 116.489 438.292 121.802 436.352C127.921 434.119 130.784 432.658 134.402 429.92C137.291 427.732 143.484 421.852 143.484 421.293C143.484 421.21 144.151 420.173 144.967 418.987C147.009 416.016 149.991 409.738 150.952 406.384C153.408 397.818 153.19 388.639 150.326 380.054C149.374 377.199 146.901 372.413 144.884 369.516C144.114 368.412 143.484 367.407 143.483 367.283C143.482 366.9 141.202 364.501 138.74 362.287C133.845 357.884 126.262 353.242 123.043 352.674C122.448 352.569 121.163 352.218 120.188 351.896C116.68 350.734 112.88 350.243 106.656 350.141C103.324 350.087 100.24 350.106 99.8011 350.182ZM821.099 351.985C820.77 353.124 817.323 361.205 815.554 364.986C814.938 366.303 813.822 368.814 813.076 370.569C812.33 372.324 811.237 374.793 810.643 376.056C810.054 377.323 809.569 378.555 809.569 378.794C809.569 379.247 807.927 383.142 805.975 387.319C805.36 388.636 804.25 391.147 803.511 392.902C802.771 394.657 801.696 397.097 801.126 398.326C799.248 402.374 798.09 405.124 798.087 405.558C798.084 405.791 797.497 407.275 796.786 408.854C796.072 410.433 794.513 413.952 793.317 416.67C792.121 419.392 790.128 423.887 788.888 426.663C787.644 429.442 786.497 432.169 786.334 432.724C786.175 433.283 785.668 434.565 785.215 435.574L784.386 437.408H797.086H809.782L810.666 435.414C811.342 433.886 814.317 426.73 816.172 422.171C816.3 421.855 819.855 421.788 833.068 421.852L849.802 421.935L851.992 427.17C853.198 430.048 854.416 432.897 854.703 433.5C854.99 434.1 855.394 435.191 855.605 435.921L855.991 437.249L869.128 437.331C876.356 437.376 882.267 437.338 882.267 437.242C882.267 437.146 881.486 435.36 880.533 433.273C879.58 431.187 878.636 428.883 878.441 428.156C878.247 427.428 877.322 425.157 876.385 423.109C875.45 421.06 874.079 417.947 873.34 416.192C872.6 414.437 871.579 412.111 871.076 411.027C869.255 407.109 866.963 401.704 866.963 401.325C866.963 401.114 866.602 400.176 866.162 399.244C865.413 397.665 864.571 395.744 858.647 382.134C855.991 376.025 856.147 376.395 853.475 370.09C850.516 363.113 846.157 353.213 845.5 351.985L844.946 350.948H833.17H821.395L821.099 351.985ZM0.00159461 351.985C0.00255117 352.38 0.50602 358.158 1.12077 364.826C1.73552 371.494 2.38757 378.746 2.56964 380.938C2.75139 383.133 2.96789 385.248 3.05047 385.644L3.20065 386.362H11.3053H19.4099L19.2645 385.325C18.9204 382.871 16.9327 359.371 16.766 355.785C16.6652 353.618 16.5019 351.717 16.4034 351.557C16.303 351.395 12.6435 351.267 8.11195 351.267H0L0.00159461 351.985ZM25.9773 352.623C26.4447 355.976 28.6933 381.975 28.6949 384.048L28.6968 386.362H36.987C43.88 386.362 45.2772 386.285 45.2772 385.915C45.2772 385.669 44.856 380.753 44.3414 374.988C43.8264 369.223 43.1673 361.636 42.8765 358.126C42.5861 354.62 42.2812 351.64 42.1996 351.506C42.118 351.376 38.3919 351.267 33.9196 351.267H25.7879L25.9773 352.623ZM716.952 351.825C716.486 353.009 708.642 375.868 707.453 379.502C701.082 398.973 700.531 400.54 700.193 400.186C699.832 399.806 695.059 384.572 694.763 382.852C694.625 382.064 693.796 379.193 692.923 376.471C692.046 373.753 690.228 368.01 688.886 363.71C687.54 359.412 686.138 354.923 685.768 353.74L685.092 351.586H672.385H659.679L659.899 352.782C660.199 354.406 661.487 358.308 666.247 372.005C668.476 378.411 670.587 384.584 670.941 385.723C671.78 388.435 677.181 404.41 680.267 413.308C681.603 417.162 682.962 421.303 683.287 422.509C683.609 423.718 684.929 427.706 686.22 431.375L688.564 438.043L699.204 437.966L709.844 437.887L710.715 435.494C715.832 421.421 716.413 419.768 718.326 413.799C718.858 412.134 720.315 407.97 721.565 404.547C722.815 401.127 724.572 396.287 725.468 393.795C726.367 391.303 727.212 389.335 727.346 389.418C727.483 389.501 727.907 390.608 728.29 391.875C729.47 395.783 730.375 398.424 732.572 404.387C734.575 409.821 737.789 418.604 739.791 424.11C740.288 425.485 740.697 426.822 740.697 427.084C740.697 427.345 741.58 429.92 742.654 432.801L744.615 438.046H755.214H765.813L767.656 432.702C768.67 429.764 770.057 425.779 770.742 423.849C773.092 417.226 774.814 412.07 774.814 411.655C774.814 411.425 776.976 404.958 779.619 397.282C782.266 389.609 784.864 381.968 785.397 380.3C785.929 378.634 786.873 375.69 787.491 373.759C788.113 371.829 789.956 366.418 791.589 361.735C793.224 357.051 794.653 352.853 794.765 352.403L794.972 351.586H782.495H770.021L769.556 352.623C768.941 354.004 763.75 370.945 763.571 372.164C763.495 372.691 762.541 375.922 761.454 379.343C760.363 382.766 758.463 388.796 757.229 392.742C755.992 396.692 754.87 400.039 754.732 400.186C754.449 400.489 752.58 395.521 752.175 393.38C752.025 392.589 751.528 390.937 751.069 389.711C750.103 387.13 742.683 365.669 741.529 362.114C741.098 360.8 740.145 357.82 739.405 355.494L738.06 351.267H727.614C717.962 351.267 717.152 351.309 716.952 351.825ZM1036.45 352.304C1036.29 353.235 1035.62 360.784 1034.19 377.588C1033.92 380.746 1033.62 384.013 1033.51 384.846L1033.32 386.362H1041.62H1049.91L1050.12 385.006C1050.23 384.259 1050.46 381.065 1050.63 377.907C1050.8 374.748 1051.36 367.643 1051.89 362.114C1052.42 356.589 1052.85 351.886 1052.85 351.666C1052.85 351.356 1051.02 351.267 1044.74 351.267H1036.62L1036.45 352.304ZM1062.31 351.481C1062.2 351.596 1062.1 352.83 1062.1 354.218C1062.1 355.609 1061.53 362.982 1060.83 370.607C1060.12 378.236 1059.55 384.897 1059.55 385.417V386.362H1067.6H1075.66L1077.18 369.532C1078.02 360.277 1078.7 352.38 1078.69 351.985L1078.68 351.267H1070.6C1066.16 351.267 1062.43 351.363 1062.31 351.481ZM167.398 394.497V437.408H179.511H191.625L191.707 422.174L191.79 406.94L212.596 406.857L233.401 406.777V396.89V387.003L212.596 386.923L191.79 386.84L191.705 379.745L191.619 372.646L214.503 372.566L237.386 372.483L237.471 362.035L237.554 351.586H202.476H167.398V394.497ZM251.469 351.8C251.352 351.915 251.257 371.226 251.257 394.711V437.408H263.532H275.808V422.094V406.78H296.374H316.94V396.89V387H296.374H275.808V379.821V372.643H298.606H321.404V362.114V351.586H286.543C267.369 351.586 251.586 351.682 251.469 351.8ZM363.174 362.114V372.643H376.247H389.32V405.025V437.408H401.436H413.553V405.029V372.649L426.706 372.566L439.858 372.483V362.114V351.746L401.516 351.666L363.174 351.583V362.114ZM455.536 351.8C455.418 351.915 455.323 371.226 455.323 394.711V437.408H467.599H479.874V421.137V404.866H495.339H510.803V421.137V437.408H522.92H535.039L534.956 394.577L534.877 351.746L522.84 351.663L510.803 351.58V367.694V383.809H495.339H479.874V367.698V351.586H467.812C461.177 351.586 455.651 351.682 455.536 351.8ZM551.298 394.497V437.408H586.85H622.402V427.199V416.989H598.966H575.53V410.293V403.593L596.336 403.513L617.141 403.43L617.227 394.098L617.31 384.766H596.422H575.53V378.389V372.008L598.568 371.928L621.605 371.845V361.795V351.746L586.451 351.666L551.298 351.583V394.497ZM893.644 351.797C893.523 351.915 893.427 371.226 893.427 394.711V437.408H926.751H960.077L959.991 426.959L959.908 416.511L938.944 416.428L917.982 416.348L917.899 384.045L917.82 351.746L905.84 351.663C899.25 351.615 893.762 351.675 893.644 351.797ZM973.46 394.497V437.408H1006.62H1039.78V426.88V416.351H1018.74H997.692V383.969V351.586H985.576H973.46V394.497ZM108.57 371.679C111.636 372.174 114.55 373.233 117.319 374.866C122.155 377.712 126.157 383.474 127.522 389.552C128.09 392.082 127.932 397.783 127.215 400.588C124.763 410.181 116.968 416.728 107.082 417.493C100.379 418.014 92.0734 414.144 87.7577 408.487C85.521 405.555 83.5441 399.216 83.5444 394.976C83.5444 392.257 84.0023 389.038 84.6553 387.159C86.1392 382.89 86.6047 381.866 87.8432 380.14C89.9482 377.208 91.972 375.613 96.4551 373.354C99.6803 371.727 104.629 371.044 108.57 371.679ZM834.602 383.49C835.425 385.51 837.032 389.456 838.17 392.264C839.308 395.071 840.507 397.955 840.829 398.67C841.524 400.198 842.73 403.229 842.73 403.443C842.73 403.523 838.425 403.59 833.164 403.59C827.246 403.59 823.598 403.472 823.598 403.283C823.598 402.926 824.622 400.278 825.537 398.271C825.881 397.512 827.013 394.775 828.05 392.184C829.089 389.597 830.447 386.224 831.072 384.693C831.697 383.162 832.207 381.678 832.207 381.4C832.207 380.858 832.829 379.537 832.998 379.713C833.056 379.773 833.776 381.474 834.602 383.49Z" fill="black"/>
</svg>
